<svg width="20" height="14" viewBox="0 0 20 14" fill="none" xmlns="http://www.w3.org/2000/svg">
<path d="M19.0375 12.4749H18.4375V0.587402C18.4375 0.276563 18.1858 0.0249023 17.875 0.0249023H15.625C15.3142 0.0249023 15.0625 0.276563 15.0625 0.587402V12.4749H13.9375V3.9624C13.9375 3.65156 13.6858 3.3999 13.375 3.3999H11.125C10.8142 3.3999 10.5625 3.65156 10.5625 3.9624V12.4749H9.4375V8.4624C9.4375 8.15156 9.18584 7.8999 8.875 7.8999H6.625C6.31416 7.8999 6.0625 8.15156 6.0625 8.4624V12.4749H4.9375V6.2124C4.9375 5.90156 4.68584 5.6499 4.375 5.6499H2.125C1.81416 5.6499 1.5625 5.90156 1.5625 6.2124V12.4749H0.962498C0.651658 12.4749 0.399998 12.7266 0.399998 13.0374C0.399998 13.3482 0.651658 13.5999 0.962498 13.5999H19.0375C19.3483 13.5999 19.6 13.3482 19.6 13.0374C19.6 12.7266 19.3483 12.4749 19.0375 12.4749Z" fill="#F49C4E"/>
</svg>
